<svg width="42" height="42" viewBox="0 0 42 42" fill="none" xmlns="http://www.w3.org/2000/svg">
<path fill-rule="evenodd" clip-rule="evenodd" d="M21 9C14.3721 9 9 14.5077 9 21.303C9 26.7365 12.4389 31.3476 17.206 32.979C17.8044 33.0936 18.0279 32.7094 18.0279 32.3858C18.0279 32.0892 18.0148 31.1252 18.0148 30.0937C14.6745 30.8353 13.971 28.6443 13.971 28.6443C13.4252 27.2219 12.6362 26.8444 12.6362 26.8444C11.5447 26.0826 12.7151 26.0961 12.7151 26.0961C13.9184 26.1837 14.5562 27.3635 14.5562 27.3635C15.6279 29.2443 17.3638 28.6983 18.0477 28.3882C18.1529 27.5927 18.4685 27.0534 18.8104 26.7433C16.1474 26.4332 13.3397 25.3748 13.3397 20.6626C13.3397 19.321 13.8066 18.2222 14.5759 17.3593C14.451 17.0492 14.0433 15.7953 14.6942 14.1032C14.6942 14.1032 15.7003 13.7729 17.9951 15.3638C18.9551 15.0942 19.9808 14.9526 21 14.9526C22.0192 14.9594 23.0449 15.0942 24.0049 15.3638C26.2932 13.7729 27.2992 14.1032 27.2992 14.1032C27.9501 15.7953 27.5425 17.0492 27.4175 17.3593C28.1868 18.2222 28.6537 19.321 28.6537 20.6626C28.6537 25.3883 25.846 26.4264 23.1764 26.7298C23.6038 27.114 23.9918 27.8623 23.9918 29.0084C23.9918 30.6533 23.9786 31.9813 23.9786 32.3858C23.9786 32.7161 24.1956 33.0936 24.8005 32.979C29.5677 31.3476 33 26.7433 33 21.303C33 14.5077 27.6279 9 21 9Z" fill="white"/>
<path d="M13.7704 29.8325C13.7428 29.904 13.6462 29.9278 13.5564 29.8802C13.4666 29.8325 13.4114 29.7372 13.4459 29.6657C13.4736 29.5942 13.5702 29.5704 13.66 29.6181C13.7497 29.6657 13.805 29.761 13.7704 29.8325Z" fill="white"/>
<path d="M14.2817 30.4922C14.2196 30.5557 14.1022 30.524 14.0263 30.4286C13.9434 30.3254 13.9296 30.1904 13.9917 30.1268C14.0539 30.0633 14.1643 30.095 14.2472 30.1904C14.33 30.2936 14.3439 30.4286 14.2817 30.4922Z" fill="white"/>
<path d="M14.7785 31.3267C14.7026 31.3903 14.5783 31.3347 14.4954 31.1996C14.4195 31.0725 14.4195 30.9137 14.4954 30.8501C14.5714 30.7866 14.6957 30.8422 14.7785 30.9693C14.8614 31.1043 14.8614 31.2632 14.7785 31.3267Z" fill="white"/>
<path d="M15.4624 32.1299C15.3934 32.2172 15.2484 32.1934 15.1379 32.0743C15.0275 31.9551 14.9998 31.7883 15.0689 31.7009C15.1379 31.6136 15.2898 31.6374 15.3934 31.7565C15.5039 31.8836 15.5315 32.0504 15.4624 32.1299Z" fill="white"/>
<path d="M16.4018 32.5991C16.3741 32.7103 16.2292 32.7659 16.0842 32.7183C15.9392 32.6706 15.8494 32.5356 15.8771 32.4244C15.9047 32.3132 16.0497 32.2576 16.1946 32.3052C16.3327 32.3529 16.4294 32.4879 16.4018 32.5991Z" fill="white"/>
<path d="M17.4302 32.6866C17.4371 32.8058 17.3128 32.909 17.1609 32.909C17.009 32.917 16.8917 32.8137 16.8848 32.6946C16.8848 32.5754 17.0021 32.4722 17.154 32.4722C17.3059 32.4722 17.4302 32.5675 17.4302 32.6866Z" fill="white"/>
<path d="M18.3896 32.5038C18.4103 32.623 18.3067 32.7421 18.1548 32.7739C18.0099 32.8056 17.8718 32.7342 17.858 32.615C17.8373 32.4959 17.9477 32.3767 18.0927 32.345C18.2377 32.3132 18.3689 32.3847 18.3896 32.5038Z" fill="white"/>
</svg>
