<svg width="42" height="42" viewBox="0 0 42 42" fill="none" xmlns="http://www.w3.org/2000/svg">
<path d="M29.447 29.452H25.893V23.883C25.893 22.555 25.866 20.846 24.041 20.846C22.188 20.846 21.905 22.291 21.905 23.785V29.452H18.351V18H21.765V19.561H21.811C22.288 18.661 23.448 17.711 25.181 17.711C28.782 17.711 29.448 20.081 29.448 23.166L29.447 29.452ZM14.337 16.433C13.193 16.433 12.274 15.507 12.274 14.368C12.274 13.23 13.194 12.305 14.337 12.305C15.477 12.305 16.401 13.23 16.401 14.368C16.401 15.507 15.476 16.433 14.337 16.433ZM16.119 29.452H12.555V18H16.119V29.452ZM31.225 9H10.771C9.792 9 9 9.774 9 10.729V31.271C9 32.227 9.792 33 10.771 33H31.222C32.2 33 33 32.227 33 31.271V10.729C33 9.774 32.2 9 31.222 9H31.225Z" fill="white"/>
</svg>
