<svg width="42" height="42" viewBox="0 0 42 42" fill="none" xmlns="http://www.w3.org/2000/svg">
<path d="M33 13.4253C32.1172 13.837 31.1691 14.1154 30.1722 14.2405C31.1896 13.6001 31.969 12.5854 32.3371 11.3777C31.3706 11.981 30.3129 12.4058 29.2098 12.6335C28.3122 11.6279 27.0322 11 25.6161 11C22.8978 11 20.6934 13.3161 20.6934 16.1747C20.6934 16.5797 20.7368 16.9748 20.8202 17.3542C16.7283 17.1381 13.1006 15.078 10.6724 11.9477C10.2484 12.7122 10.0057 13.6011 10.0057 14.5495C10.0057 16.3445 10.875 17.9283 12.1958 18.8561C11.4139 18.8306 10.6491 18.6088 9.96544 18.2091V18.2745C9.96544 20.7819 11.6623 22.8727 13.9147 23.3482C13.501 23.4673 13.0667 23.5296 12.6175 23.5296C12.2999 23.5296 11.9917 23.498 11.6907 23.4385C12.3172 25.4936 14.1355 26.9896 16.2893 27.0319C14.6043 28.4202 12.4811 29.2477 10.1751 29.2477C9.77791 29.2477 9.38536 29.2228 9 29.174C11.1792 30.6426 13.7666 31.5 16.5471 31.5C25.6026 31.5 30.5552 23.6149 30.5552 16.7769C30.5552 16.5524 30.5505 16.3296 30.5402 16.1076C31.5051 15.3741 32.338 14.4658 33 13.4253Z" fill="white"/>
</svg>
